<?xml version="1.0" encoding="utf-8"?>
<!-- Generator: Adobe Illustrator 21.0.0, SVG Export Plug-In . SVG Version: 6.00 Build 0)  -->
<svg version="1.1" id="Calque_1" xmlns="http://www.w3.org/2000/svg" xmlns:xlink="http://www.w3.org/1999/xlink" x="0px" y="0px"
	 viewBox="0 0 323.1 260.7" style="enable-background:new 0 0 323.1 260.7;" xml:space="preserve">
<g>
	<g>
		<defs>
			<path id="SVGID_1_" d="M34.9,48l9.4,28.3H24.8L34.9,48z M39.7,27.8L12.1,102H7v2.1h16.5V102h-8.1l8.3-23.3h21.4l7.9,23.3h-7.7
				v2.1h35.3V102h-5L48.5,27.8H39.7z"/>
		</defs>
		<linearGradient id="SVGID_2_" gradientUnits="userSpaceOnUse" x1="43.8756" y1="23.8095" x2="43.8756" y2="263.1219">
			<stop  offset="0" style="stop-color:#C2000B"/>
			<stop  offset="0.4045" style="stop-color:#FE330A"/>
			<stop  offset="0.5552" style="stop-color:#FB2631"/>
			<stop  offset="0.7139" style="stop-color:#F61855"/>
			<stop  offset="0.8463" style="stop-color:#F3106D"/>
			<stop  offset="0.9454" style="stop-color:#F1097A"/>
			<stop  offset="1" style="stop-color:#F0047F"/>
		</linearGradient>
		<use xlink:href="#SVGID_1_"  style="overflow:visible;fill:url(#SVGID_2_);"/>
		<clipPath id="SVGID_3_">
			<use xlink:href="#SVGID_1_"  style="overflow:visible;"/>
		</clipPath>
	</g>
	<g>
		<defs>
			<path id="SVGID_4_" d="M190.8,87.8c-2.4,2-4.1,4.7-5.3,8v-9.9h-26v1.9h5.9v47.5h-5.9v1.9h30.7v-1.9h-4.6v-29.8
				c0-4.3,0.9-8,2.6-11c1.8-3,3.8-4.5,6.1-4.5c1.5,0,2.6,0.6,3.1,1.9c0.6,1.3,0.9,4.1,0.9,8.4v35.1h-4.4v1.9h30.6v-1.9h-6v-32.5
				c0-12-5.6-18-16.7-18C196.8,84.7,193.2,85.7,190.8,87.8"/>
		</defs>
		<linearGradient id="SVGID_5_" gradientUnits="userSpaceOnUse" x1="191.9746" y1="23.8095" x2="191.9746" y2="263.1219">
			<stop  offset="0" style="stop-color:#C2000B"/>
			<stop  offset="0.4045" style="stop-color:#FE330A"/>
			<stop  offset="0.5552" style="stop-color:#FB2631"/>
			<stop  offset="0.7139" style="stop-color:#F61855"/>
			<stop  offset="0.8463" style="stop-color:#F3106D"/>
			<stop  offset="0.9454" style="stop-color:#F1097A"/>
			<stop  offset="1" style="stop-color:#F0047F"/>
		</linearGradient>
		<use xlink:href="#SVGID_4_"  style="overflow:visible;fill:url(#SVGID_5_);"/>
		<clipPath id="SVGID_6_">
			<use xlink:href="#SVGID_4_"  style="overflow:visible;"/>
		</clipPath>
	</g>
	<g>
		<defs>
			<path id="SVGID_7_" d="M248.4,67.7c0-5.5,0.5-9.4,1.5-11.7c1-2.3,2.5-3.4,4.5-3.4s3.4,1.1,4.1,3.2c0.7,2.1,1,6.1,1,11.9V73h-11.1
				V67.7z M235.3,57.3c-5.2,4.5-7.8,11.1-7.8,19.6c0,8.5,2.3,15.2,7,20c4.6,4.8,11.6,7.2,20.9,7.2c7.1,0,12.5-1.4,16-4.3
				c3.6-2.9,6-6.9,7.4-12.1l-1.9-0.3c-2.6,8.9-8.1,13.4-16.4,13.4c-4.5,0-7.6-1.8-9.4-5.4c-1.8-3.6-2.7-8.9-2.7-16v-4.2h30.5
				c0.6-16.4-7.2-24.6-23.5-24.6C247.2,50.5,240.5,52.8,235.3,57.3"/>
		</defs>
		<linearGradient id="SVGID_8_" gradientUnits="userSpaceOnUse" x1="253.1381" y1="23.8095" x2="253.1381" y2="263.1219">
			<stop  offset="0" style="stop-color:#C2000B"/>
			<stop  offset="0.4045" style="stop-color:#FE330A"/>
			<stop  offset="0.5552" style="stop-color:#FB2631"/>
			<stop  offset="0.7139" style="stop-color:#F61855"/>
			<stop  offset="0.8463" style="stop-color:#F3106D"/>
			<stop  offset="0.9454" style="stop-color:#F1097A"/>
			<stop  offset="1" style="stop-color:#F0047F"/>
		</linearGradient>
		<use xlink:href="#SVGID_7_"  style="overflow:visible;fill:url(#SVGID_8_);"/>
		<clipPath id="SVGID_9_">
			<use xlink:href="#SVGID_7_"  style="overflow:visible;"/>
		</clipPath>
	</g>
	<g>
		<defs>
			<path id="SVGID_10_" d="M120.1,54.6c-2.4,2-4.1,4.7-5.3,8v-9.9h-26v1.9h5.9v47.5h-5.9v1.9h30.7v-1.9h-4.6V72.3
				c0-4.3,0.9-8,2.6-11c1.8-3,3.8-4.5,6.1-4.5c1.5,0,2.6,0.6,3.1,1.9c0.6,1.3,0.9,4.1,0.9,8.4v35.1h-4.4v1.9h30.6v-1.9h-6V69.6
				c0-12-5.6-18-16.7-18C126,51.6,122.4,52.6,120.1,54.6"/>
		</defs>
		<linearGradient id="SVGID_11_" gradientUnits="userSpaceOnUse" x1="121.1906" y1="23.8095" x2="121.1906" y2="263.1219">
			<stop  offset="0" style="stop-color:#C2000B"/>
			<stop  offset="0.4045" style="stop-color:#FE330A"/>
			<stop  offset="0.5552" style="stop-color:#FB2631"/>
			<stop  offset="0.7139" style="stop-color:#F61855"/>
			<stop  offset="0.8463" style="stop-color:#F3106D"/>
			<stop  offset="0.9454" style="stop-color:#F1097A"/>
			<stop  offset="1" style="stop-color:#F0047F"/>
		</linearGradient>
		<use xlink:href="#SVGID_10_"  style="overflow:visible;fill:url(#SVGID_11_);"/>
		<clipPath id="SVGID_12_">
			<use xlink:href="#SVGID_10_"  style="overflow:visible;"/>
		</clipPath>
	</g>
	<g>
		<defs>
			<path id="SVGID_13_" d="M120.4,158.4c0-5.5,0.5-9.4,1.5-11.7c1-2.3,2.5-3.4,4.5-3.4c2.1,0,3.4,1.1,4.1,3.2c0.7,2.1,1,6.1,1,11.9
				v5.3h-11.1V158.4z M107.2,148.1c-5.2,4.5-7.8,11.1-7.8,19.6c0,8.5,2.3,15.2,7,20s11.6,7.2,20.9,7.2c7.1,0,12.5-1.4,16-4.3
				c3.6-2.9,6-6.9,7.4-12.1l-1.9-0.3c-2.6,8.9-8.1,13.4-16.4,13.4c-4.5,0-7.6-1.8-9.4-5.4c-1.8-3.6-2.7-8.9-2.7-16v-4.2h30.5
				c0.6-16.4-7.2-24.6-23.5-24.6C119.1,141.3,112.5,143.6,107.2,148.1 M66.2,118.2l-13,55.6l-14.4-55.6H9.8v2.1h5.9v71.4H9.8v2.1
				h14.7v-2.1h-5.9v-67.8h0.4l19,69.8h13.5l16.2-69.5h0.4v67.4h-5.9v2.1h32.9v-2.1h-5.9v-71.4h5.9v-2.1H66.2z M131,113l-5.1,1.1
				l-6.8,20.6l1.2,0.8l14.5-12c2.1-1.9,3.1-3.7,3.1-5.4c0-1.8-0.6-3.2-1.8-4.2c-0.8-0.7-1.8-1.1-3.1-1.1
				C132.4,112.8,131.8,112.9,131,113"/>
		</defs>
		<linearGradient id="SVGID_14_" gradientUnits="userSpaceOnUse" x1="80.2501" y1="23.8095" x2="80.2501" y2="263.1219">
			<stop  offset="0" style="stop-color:#C2000B"/>
			<stop  offset="0.4045" style="stop-color:#FE330A"/>
			<stop  offset="0.5552" style="stop-color:#FB2631"/>
			<stop  offset="0.7139" style="stop-color:#F61855"/>
			<stop  offset="0.8463" style="stop-color:#F3106D"/>
			<stop  offset="0.9454" style="stop-color:#F1097A"/>
			<stop  offset="1" style="stop-color:#F0047F"/>
		</linearGradient>
		<use xlink:href="#SVGID_13_"  style="overflow:visible;fill:url(#SVGID_14_);"/>
		<clipPath id="SVGID_15_">
			<use xlink:href="#SVGID_13_"  style="overflow:visible;"/>
		</clipPath>
	</g>
	<g>
		<defs>
			<path id="SVGID_16_" d="M196.7,158.8c-2.7,2-4.5,4.8-5.4,8.5v-10.4h-26v1.9h5.9v47.5h-5.9v1.9H199v-1.9h-7.7v-28.9
				c0-4.8,1-8.9,3-12.3c2-3.5,4.4-5.2,7-5.2c3.3,0,4.1,1.8,2.3,5.5h-3.9c-1.2,3.8-1,6.8,0.6,9c1.5,2.2,4,3.2,7.2,3.2
				c3.3,0,5.7-0.9,7.3-2.8c1.6-1.9,2.4-4.6,2.4-8c0-3.5-1.1-6.2-3.2-8.1c-2.1-1.9-4.9-2.9-8.3-2.9
				C202.4,155.9,199.4,156.9,196.7,158.8"/>
		</defs>
		<linearGradient id="SVGID_17_" gradientUnits="userSpaceOnUse" x1="191.2656" y1="23.8095" x2="191.2656" y2="263.1219">
			<stop  offset="0" style="stop-color:#C2000B"/>
			<stop  offset="0.4045" style="stop-color:#FE330A"/>
			<stop  offset="0.5552" style="stop-color:#FB2631"/>
			<stop  offset="0.7139" style="stop-color:#F61855"/>
			<stop  offset="0.8463" style="stop-color:#F3106D"/>
			<stop  offset="0.9454" style="stop-color:#F1097A"/>
			<stop  offset="1" style="stop-color:#F0047F"/>
		</linearGradient>
		<use xlink:href="#SVGID_16_"  style="overflow:visible;fill:url(#SVGID_17_);"/>
		<clipPath id="SVGID_18_">
			<use xlink:href="#SVGID_16_"  style="overflow:visible;"/>
		</clipPath>
	</g>
	<g>
		<defs>
			<path id="SVGID_19_" d="M297.2,117.4v3.3h12.3l-21.3,61l-20-61h9.9v-3.3h-53.3v3.3h7.5l31.4,84.2h16.2l-4,11.4
				c-3.6,10.2-7.3,17.7-11.2,22.7c-3.9,5-8.4,7.4-13.4,7.4c-2.6,0-4.2-0.9-5-2.8c-0.7-1.8-0.6-4.2,0.4-7h6.4
				c0.7-2.6,1.1-4.8,1.1-6.6c0-8.5-5.1-12.7-15.3-12.7c-4.4,0-8,1.3-10.7,4c-2.7,2.7-4,6.6-4,11.8c0,5.1,2.1,9.4,6.2,12.7
				c4.2,3.3,9.9,5,17.1,5c7.2,0,13.4-2.3,18.4-6.9c5-4.6,9.6-12.7,13.6-24.2l34.4-99.1h9.2v-3.3H297.2z"/>
		</defs>
		<linearGradient id="SVGID_20_" gradientUnits="userSpaceOnUse" x1="273.6941" y1="23.8095" x2="273.6941" y2="263.1219">
			<stop  offset="0" style="stop-color:#C2000B"/>
			<stop  offset="0.4045" style="stop-color:#FE330A"/>
			<stop  offset="0.5552" style="stop-color:#FB2631"/>
			<stop  offset="0.7139" style="stop-color:#F61855"/>
			<stop  offset="0.8463" style="stop-color:#F3106D"/>
			<stop  offset="0.9454" style="stop-color:#F1097A"/>
			<stop  offset="1" style="stop-color:#F0047F"/>
		</linearGradient>
		<use xlink:href="#SVGID_19_"  style="overflow:visible;fill:url(#SVGID_20_);"/>
		<clipPath id="SVGID_21_">
			<use xlink:href="#SVGID_19_"  style="overflow:visible;"/>
		</clipPath>
	</g>
</g>
</svg>
