<?xml version="1.0" encoding="utf-8"?>
<!-- Generator: Adobe Illustrator 21.0.0, SVG Export Plug-In . SVG Version: 6.00 Build 0)  -->
<svg version="1.1"
	 id="Calque_1" xmlns:cc="http://creativecommons.org/ns#" xmlns:dc="http://purl.org/dc/elements/1.1/" xmlns:inkscape="http://www.inkscape.org/namespaces/inkscape" xmlns:rdf="http://www.w3.org/1999/02/22-rdf-syntax-ns#" xmlns:sodipodi="http://sodipodi.sourceforge.net/DTD/sodipodi-0.dtd" xmlns:svg="http://www.w3.org/2000/svg"
	 xmlns="http://www.w3.org/2000/svg" xmlns:xlink="http://www.w3.org/1999/xlink" x="0px" y="0px" viewBox="0 0 100 60.7"
	 style="enable-background:new 0 0 100 60.7;" xml:space="preserve">
<style type="text/css">
	.st0{fill:#282833;}
</style>
<g transform="translate(0,-952.36218)">
	<path class="st0" d="M50.8,955.1l43,17c0.7,0.3,1.3,1.1,1.3,1.9c0,0.8-0.5,1.6-1.3,1.9l-3.8,1.5v11.1c1.8,0.8,3,2.5,3,4.6
		c0,2.7-2.3,5-5,5s-5-2.3-5-5c0-2,1.2-3.8,3-4.6V979l-7,2.8V997c0,2-1.2,3.5-2.8,4.8c-1.6,1.3-3.7,2.5-6.3,3.6
		c-5.2,2.1-12.1,3.6-19.9,3.6s-14.7-1.5-19.9-3.6c-2.6-1-4.7-2.2-6.3-3.6c-1.6-1.3-2.8-2.8-2.8-4.8v-15.3l-14.8-5.8
		C5.5,975.5,5,974.8,5,974s0.5-1.6,1.3-1.9l43-17C49.9,954.9,50.3,955,50.8,955.1z M50,959.1L12.4,974L50,988.8L87.6,974L50,959.1z
		 M75,983.2l-24.2,9.6c-0.5,0.2-1,0.2-1.5,0L25,983.2V997c0,0.1,0.3,0.8,1.4,1.8c1.1,0.9,2.9,2,5.2,2.9c4.6,1.9,11.1,3.3,18.3,3.3
		s13.7-1.4,18.3-3.3c2.3-0.9,4.1-2,5.2-2.9s1.4-1.7,1.4-1.8L75,983.2z M88,992c-0.6,0-1,0.4-1,1s0.4,1,1,1s1-0.4,1-1
		S88.6,992,88,992z"/>
</g>
</svg>
