<?xml version="1.0" encoding="utf-8"?>
<!-- Generator: Adobe Illustrator 21.0.0, SVG Export Plug-In . SVG Version: 6.00 Build 0)  -->
<svg version="1.1" id="Calque_1" xmlns="http://www.w3.org/2000/svg" xmlns:xlink="http://www.w3.org/1999/xlink" x="0px" y="0px"
	 viewBox="0 0 57.1 71.4" style="enable-background:new 0 0 57.1 71.4;" xml:space="preserve">
<g>
	<g>
		<defs>
			<path id="SVGID_1_" d="M12.2,45.4c-0.4-0.5-0.4-1.1,0-1.6l7.5-7.7l-8.7-9.3c-0.4-0.5-0.4-1.2,0.1-1.6c0.4-0.5,1.2-0.4,1.6,0.1
				L27,40.6c0.8,0.9,2.2,0.9,3.1,0l14.5-14.9c0.4-0.5,1.1-0.5,1.6,0c0.4,0.5,0.4,1.1,0,1.6l-8.6,8.9l6.9,7.1c0.4,0.5,0.4,1.1,0,1.6
				c-0.2,0.2-0.5,0.3-0.8,0.3c-0.3,0-0.6-0.1-0.8-0.3l-7-7.1l-4.2,4.4c-0.8,0.9-2,1.3-3.1,1.3c-1.1,0-2.3-0.5-3.1-1.3l-4.2-4.5
				l-7.5,7.8c-0.2,0.2-0.5,0.3-0.8,0.3S12.5,45.7,12.2,45.4 M11.2,19.4c-2.4,0-4.3,2-4.3,4.4v23.8c0,2.5,1.9,4.4,4.3,4.4H46
				c2.4,0,4.3-2,4.3-4.4V23.8c0,0,0,0,0-0.1v-0.1c0-2.3-1.9-4.3-4.2-4.3H11.2z"/>
		</defs>
		<linearGradient id="SVGID_2_" gradientUnits="userSpaceOnUse" x1="27.9415" y1="21.1775" x2="29.132" y2="48.5584">
			<stop  offset="0" style="stop-color:#C20C0D"/>
			<stop  offset="0.4045" style="stop-color:#F7310F"/>
			<stop  offset="0.4915" style="stop-color:#F4291E"/>
			<stop  offset="0.7258" style="stop-color:#F01654"/>
			<stop  offset="0.9026" style="stop-color:#EF0D75"/>
			<stop  offset="1" style="stop-color:#EF0A7C"/>
		</linearGradient>
		<use xlink:href="#SVGID_1_"  style="overflow:visible;fill:url(#SVGID_2_);"/>
		<clipPath id="SVGID_3_">
			<use xlink:href="#SVGID_1_"  style="overflow:visible;"/>
		</clipPath>
	</g>
</g>
</svg>
