<?xml version="1.0" encoding="utf-8"?>
<!-- Generator: Adobe Illustrator 21.0.0, SVG Export Plug-In . SVG Version: 6.00 Build 0)  -->
<svg version="1.1" id="Calque_1" xmlns="http://www.w3.org/2000/svg" xmlns:xlink="http://www.w3.org/1999/xlink" x="0px" y="0px"
	 viewBox="0 0 57.1 71.4" style="enable-background:new 0 0 57.1 71.4;" xml:space="preserve">
<style type="text/css">
	.st0{fill:url(#SVGID_2_);}
	.st1{fill:none;stroke:url(#SVGID_3_);stroke-width:3;stroke-miterlimit:10;}
</style>
<g>
	<g>
		<g>
			
				<linearGradient id="SVGID_2_" gradientUnits="userSpaceOnUse" x1="16.352" y1="37.7267" x2="42.8412" y2="37.7267" gradientTransform="matrix(1 0 0 -1 0 72.39)">
				<stop  offset="0" style="stop-color:#C20C0D"/>
				<stop  offset="0.4045" style="stop-color:#F7310F"/>
				<stop  offset="0.4915" style="stop-color:#F4291E"/>
				<stop  offset="0.7258" style="stop-color:#F01654"/>
				<stop  offset="0.9026" style="stop-color:#EF0D75"/>
				<stop  offset="1" style="stop-color:#EF0A7C"/>
			</linearGradient>
			<path id="SVGID_1_" class="st0" d="M22.1,19.3c-2.3,0.5-4.3,3.2-5,5.2c-2.5,6.5,1.7,13.1,6.2,17.7c3.7,4.2,11.3,11,17.6,6.6
				c0.8-0.6,1.7-1.4,1.9-2.3c0.3-1.7-1.1-3.1-2.2-4.1c-0.8-0.9-2.4-3-3.5-3.2s-2,0.8-2.8,1.4l-1.5,0.9c-0.2,0.2-2.6-1.9-2.8-2.1
				c-0.8-0.9-1.7-1.7-2.6-2.8c-0.6-0.9-1.3-2-2-3.1c-0.1-0.4-1.3-3-1.1-3.1c0,0,1.7-1.2,2.3-1.7c1-1.3,2-2.1,1.4-3.6
				c-0.4-0.7-0.7-1.1-1-1.6c-0.9-1.1-1.5-2-2.3-2.8c-0.3-0.5-1.1-1.2-1.8-1.5c-0.1-0.1-0.3-0.1-0.4-0.1
				C22.3,19.2,22.2,19.2,22.1,19.3"/>
		</g>
	</g>
</g>
<linearGradient id="SVGID_3_" gradientUnits="userSpaceOnUse" x1="-645.9018" y1="55.941" x2="-597.4066" y2="55.941" gradientTransform="matrix(0.2306 -0.973 -0.973 -0.2306 226.349 -556.2384)">
	<stop  offset="0" style="stop-color:#C20C0D"/>
	<stop  offset="0.4045" style="stop-color:#F7310F"/>
	<stop  offset="0.4915" style="stop-color:#F4291E"/>
	<stop  offset="0.7258" style="stop-color:#F01654"/>
	<stop  offset="0.9026" style="stop-color:#EF0D75"/>
	<stop  offset="1" style="stop-color:#EF0A7C"/>
</linearGradient>
<ellipse transform="matrix(0.1161 -0.9932 0.9932 0.1161 -10.2007 59.9084)" class="st1" cx="28.6" cy="35.7" rx="22.7" ry="22.7"/>
</svg>
