<?xml version="1.0" encoding="utf-8"?>
<!-- Generator: Adobe Illustrator 21.0.0, SVG Export Plug-In . SVG Version: 6.00 Build 0)  -->
<svg version="1.1" id="Calque_1" xmlns="http://www.w3.org/2000/svg" xmlns:xlink="http://www.w3.org/1999/xlink" x="0px" y="0px"
	 viewBox="0 0 57.1 71.4" style="enable-background:new 0 0 57.1 71.4;" xml:space="preserve">
<style type="text/css">
	.st0{fill:url(#SVGID_28_);}
</style>
<g>
	<g>
		<defs>
			<path id="SVGID_1_" d="M40.9,23.3h8c-2.8-4.4-7-7.9-12.1-9.6C38.5,16.6,39.9,19.9,40.9,23.3"/>
		</defs>
		<linearGradient id="SVGID_2_" gradientUnits="userSpaceOnUse" x1="42.9304" y1="13.6269" x2="41.4304" y2="57.6269">
			<stop  offset="0" style="stop-color:#C20C0D"/>
			<stop  offset="0.4045" style="stop-color:#F7310F"/>
			<stop  offset="0.4915" style="stop-color:#F4291E"/>
			<stop  offset="0.7258" style="stop-color:#F01654"/>
			<stop  offset="0.9026" style="stop-color:#EF0D75"/>
			<stop  offset="1" style="stop-color:#EF0A7C"/>
		</linearGradient>
		<use xlink:href="#SVGID_1_"  style="overflow:visible;fill:url(#SVGID_2_);"/>
		<clipPath id="SVGID_3_">
			<use xlink:href="#SVGID_1_"  style="overflow:visible;"/>
		</clipPath>
	</g>
	<g>
		<defs>
			<path id="SVGID_4_" d="M17.4,37.1c0.1,2.8,0.4,5.6,1.1,8.3h14l-1.6-5.9c-0.2-0.8-0.2-1.6,0.1-2.3H17.4z"/>
		</defs>
		<linearGradient id="SVGID_5_" gradientUnits="userSpaceOnUse" x1="25.9046" y1="13.0464" x2="24.4046" y2="57.0464">
			<stop  offset="0" style="stop-color:#C20C0D"/>
			<stop  offset="0.4045" style="stop-color:#F7310F"/>
			<stop  offset="0.4915" style="stop-color:#F4291E"/>
			<stop  offset="0.7258" style="stop-color:#F01654"/>
			<stop  offset="0.9026" style="stop-color:#EF0D75"/>
			<stop  offset="1" style="stop-color:#EF0A7C"/>
		</linearGradient>
		<use xlink:href="#SVGID_4_"  style="overflow:visible;fill:url(#SVGID_5_);"/>
		<clipPath id="SVGID_6_">
			<use xlink:href="#SVGID_4_"  style="overflow:visible;"/>
		</clipPath>
	</g>
	<g>
		<defs>
			<path id="SVGID_7_" d="M18.5,26.1c-0.6,2.7-1.1,5.4-1.1,8.3h22.3c-0.1-2.8-0.4-5.6-1.1-8.3H18.5z"/>
		</defs>
		<linearGradient id="SVGID_8_" gradientUnits="userSpaceOnUse" x1="29.2572" y1="13.1607" x2="27.7572" y2="57.1607">
			<stop  offset="0" style="stop-color:#C20C0D"/>
			<stop  offset="0.4045" style="stop-color:#F7310F"/>
			<stop  offset="0.4915" style="stop-color:#F4291E"/>
			<stop  offset="0.7258" style="stop-color:#F01654"/>
			<stop  offset="0.9026" style="stop-color:#EF0D75"/>
			<stop  offset="1" style="stop-color:#EF0A7C"/>
		</linearGradient>
		<use xlink:href="#SVGID_7_"  style="overflow:visible;fill:url(#SVGID_8_);"/>
		<clipPath id="SVGID_9_">
			<use xlink:href="#SVGID_7_"  style="overflow:visible;"/>
		</clipPath>
	</g>
	<g>
		<defs>
			<path id="SVGID_10_" d="M28.5,12.3c-1.3,0-2.5,0.1-3.7,0.3c-2.5,3.2-4.3,6.7-5.6,10.7h18.6c-1.2-3.9-3-7.6-5.3-10.7
				C31.3,12.4,29.9,12.3,28.5,12.3z"/>
		</defs>
		<linearGradient id="SVGID_11_" gradientUnits="userSpaceOnUse" x1="28.953" y1="13.1504" x2="27.453" y2="57.1504">
			<stop  offset="0" style="stop-color:#C20C0D"/>
			<stop  offset="0.4045" style="stop-color:#F7310F"/>
			<stop  offset="0.4915" style="stop-color:#F4291E"/>
			<stop  offset="0.7258" style="stop-color:#F01654"/>
			<stop  offset="0.9026" style="stop-color:#EF0D75"/>
			<stop  offset="1" style="stop-color:#EF0A7C"/>
		</linearGradient>
		<use xlink:href="#SVGID_10_"  style="overflow:visible;fill:url(#SVGID_11_);"/>
		<clipPath id="SVGID_12_">
			<use xlink:href="#SVGID_10_"  style="overflow:visible;"/>
		</clipPath>
	</g>
	<g>
		<defs>
			<path id="SVGID_13_" d="M8.2,23.3h8.1c1.1-3.4,2.5-6.8,4.4-9.7C15.5,15.3,11.1,18.8,8.2,23.3"/>
		</defs>
		<linearGradient id="SVGID_14_" gradientUnits="userSpaceOnUse" x1="14.6816" y1="12.6638" x2="13.1816" y2="56.6638">
			<stop  offset="0" style="stop-color:#C20C0D"/>
			<stop  offset="0.4045" style="stop-color:#F7310F"/>
			<stop  offset="0.4915" style="stop-color:#F4291E"/>
			<stop  offset="0.7258" style="stop-color:#F01654"/>
			<stop  offset="0.9026" style="stop-color:#EF0D75"/>
			<stop  offset="1" style="stop-color:#EF0A7C"/>
		</linearGradient>
		<use xlink:href="#SVGID_13_"  style="overflow:visible;fill:url(#SVGID_14_);"/>
		<clipPath id="SVGID_15_">
			<use xlink:href="#SVGID_13_"  style="overflow:visible;"/>
		</clipPath>
	</g>
	<g>
		<defs>
			<path id="SVGID_16_" d="M6.7,26.1c-1.1,2.5-1.9,5.3-2,8.3h9.9c0.1-2.8,0.5-5.6,1.1-8.3H6.7z"/>
		</defs>
		<linearGradient id="SVGID_17_" gradientUnits="userSpaceOnUse" x1="10.7544" y1="12.53" x2="9.2544" y2="56.53">
			<stop  offset="0" style="stop-color:#C20C0D"/>
			<stop  offset="0.4045" style="stop-color:#F7310F"/>
			<stop  offset="0.4915" style="stop-color:#F4291E"/>
			<stop  offset="0.7258" style="stop-color:#F01654"/>
			<stop  offset="0.9026" style="stop-color:#EF0D75"/>
			<stop  offset="1" style="stop-color:#EF0A7C"/>
		</linearGradient>
		<use xlink:href="#SVGID_16_"  style="overflow:visible;fill:url(#SVGID_17_);"/>
		<clipPath id="SVGID_18_">
			<use xlink:href="#SVGID_16_"  style="overflow:visible;"/>
		</clipPath>
	</g>
	<g>
		<defs>
			<path id="SVGID_19_" d="M4.7,37.1c0.1,3,0.9,5.7,2,8.3h8.9c-0.6-2.7-0.9-5.4-1-8.3H4.7z"/>
		</defs>
		<linearGradient id="SVGID_20_" gradientUnits="userSpaceOnUse" x1="11.1297" y1="12.5428" x2="9.6297" y2="56.5428">
			<stop  offset="0" style="stop-color:#C20C0D"/>
			<stop  offset="0.4045" style="stop-color:#F7310F"/>
			<stop  offset="0.4915" style="stop-color:#F4291E"/>
			<stop  offset="0.7258" style="stop-color:#F01654"/>
			<stop  offset="0.9026" style="stop-color:#EF0D75"/>
			<stop  offset="1" style="stop-color:#EF0A7C"/>
		</linearGradient>
		<use xlink:href="#SVGID_19_"  style="overflow:visible;fill:url(#SVGID_20_);"/>
		<clipPath id="SVGID_21_">
			<use xlink:href="#SVGID_19_"  style="overflow:visible;"/>
		</clipPath>
	</g>
	<g>
		<defs>
			<path id="SVGID_22_" d="M8.2,48.1c2.8,4.4,7,7.9,12.2,9.6c-1.8-3-3.2-6.2-4.2-9.6H8.2z"/>
		</defs>
		<linearGradient id="SVGID_23_" gradientUnits="userSpaceOnUse" x1="15.7146" y1="12.6991" x2="14.2146" y2="56.6991">
			<stop  offset="0" style="stop-color:#C20C0D"/>
			<stop  offset="0.4045" style="stop-color:#F7310F"/>
			<stop  offset="0.4915" style="stop-color:#F4291E"/>
			<stop  offset="0.7258" style="stop-color:#F01654"/>
			<stop  offset="0.9026" style="stop-color:#EF0D75"/>
			<stop  offset="1" style="stop-color:#EF0A7C"/>
		</linearGradient>
		<use xlink:href="#SVGID_22_"  style="overflow:visible;fill:url(#SVGID_23_);"/>
		<clipPath id="SVGID_24_">
			<use xlink:href="#SVGID_22_"  style="overflow:visible;"/>
		</clipPath>
	</g>
	<g>
		<defs>
			<path id="SVGID_25_" d="M19.2,48.1c1.2,3.9,3,7.6,5.3,10.7c1.3,0.2,2.7,0.3,4.1,0.3c1.3,0,2.5-0.1,3.7-0.3c1-1.2,1.9-2.6,2.7-4
				l-1.8-6.8H19.2z"/>
		</defs>
		<linearGradient id="SVGID_26_" gradientUnits="userSpaceOnUse" x1="28.3291" y1="13.1291" x2="26.8291" y2="57.1291">
			<stop  offset="0" style="stop-color:#C20C0D"/>
			<stop  offset="0.4045" style="stop-color:#F7310F"/>
			<stop  offset="0.4915" style="stop-color:#F4291E"/>
			<stop  offset="0.7258" style="stop-color:#F01654"/>
			<stop  offset="0.9026" style="stop-color:#EF0D75"/>
			<stop  offset="1" style="stop-color:#EF0A7C"/>
		</linearGradient>
		<use xlink:href="#SVGID_25_"  style="overflow:visible;fill:url(#SVGID_26_);"/>
		<clipPath id="SVGID_27_">
			<use xlink:href="#SVGID_25_"  style="overflow:visible;"/>
		</clipPath>
	</g>
	<g>
		<linearGradient id="SVGID_28_" gradientUnits="userSpaceOnUse" x1="36.3547" y1="57.8241" x2="36.3547" y2="57.8241">
			<stop  offset="0" style="stop-color:#C20C0D"/>
			<stop  offset="0.4045" style="stop-color:#F7310F"/>
			<stop  offset="0.4915" style="stop-color:#F4291E"/>
			<stop  offset="0.7258" style="stop-color:#F01654"/>
			<stop  offset="0.9026" style="stop-color:#EF0D75"/>
			<stop  offset="1" style="stop-color:#EF0A7C"/>
		</linearGradient>
		<path class="st0" d="M36.4,57.8"/>
	</g>
	<g>
		<defs>
			<path id="SVGID_29_" d="M34.9,37.4h-0.2h-0.1c-0.1,0-0.2,0.1-0.3,0.1h-0.1c-0.1,0-0.1,0-0.2,0.1c0,0.1-0.1,0.1-0.1,0.1
				c-0.1,0.1-0.1,0.1-0.2,0.2c-0.1,0.1-0.1,0.2-0.1,0.3v0.1c-0.1,0.1-0.1,0.1-0.1,0.2v0.1c-0.1,0.1,0,0.2,0,0.3l2.9,11.2l0.3,1
				l1.2,4.3c0.1,0.1,0.1,0.3,0.2,0.4c0.1,0.1,0.2,0.2,0.3,0.3c0,0.1,0.1,0.1,0.1,0.1c0.1,0.1,0.1,0.1,0.2,0.1h0.1h0.2h0.1h0.1h0.1
				c0.1,0,0.1-0.1,0.2-0.1s0.1-0.1,0.1-0.1c0.1,0,0.1-0.1,0.2-0.1l0.1-0.1c0.1-0.1,0.1-0.2,0.2-0.3l1.6-4l3.3,4.8l1.6,2.3
				c0.1,0.1,0.1,0.2,0.2,0.3l0.1,0.1c0.1,0.1,0.1,0.1,0.2,0.1c0,0.1,0.1,0.1,0.1,0.1c0.1,0,0.1,0.1,0.2,0.1h0.1
				c0.1,0.1,0.2,0.1,0.4,0.1H48c0.1,0,0.2-0.1,0.3-0.1h0.1c0.1,0,0.2-0.1,0.4-0.1c0.8-0.4,1-1.4,0.5-2.1l-3.4-5l-1.3-2.1l4.2-0.2
				c1.2-0.1,1.6-1.6,0.6-2.3l-2.7-1.9L42,42.1l-2.6-1.9l-3.9-2.8c-0.1-0.1-0.2-0.1-0.4-0.1H34.9z"/>
		</defs>
		<linearGradient id="SVGID_30_" gradientUnits="userSpaceOnUse" x1="42.7713" y1="13.6214" x2="41.2713" y2="57.6214">
			<stop  offset="0" style="stop-color:#C20C0D"/>
			<stop  offset="0.4045" style="stop-color:#F7310F"/>
			<stop  offset="0.4915" style="stop-color:#F4291E"/>
			<stop  offset="0.7258" style="stop-color:#F01654"/>
			<stop  offset="0.9026" style="stop-color:#EF0D75"/>
			<stop  offset="1" style="stop-color:#EF0A7C"/>
		</linearGradient>
		<use xlink:href="#SVGID_29_"  style="overflow:visible;fill:url(#SVGID_30_);"/>
		<clipPath id="SVGID_31_">
			<use xlink:href="#SVGID_29_"  style="overflow:visible;"/>
		</clipPath>
	</g>
	<g>
		<defs>
			<path id="SVGID_32_" d="M42.5,37.1c0,0.6,0,1.2-0.1,1.9l8.2,5.8c1-2.3,1.6-5,1.8-7.6H42.5z"/>
		</defs>
		<linearGradient id="SVGID_33_" gradientUnits="userSpaceOnUse" x1="48.2738" y1="13.809" x2="46.7738" y2="57.809">
			<stop  offset="0" style="stop-color:#C20C0D"/>
			<stop  offset="0.4045" style="stop-color:#F7310F"/>
			<stop  offset="0.4915" style="stop-color:#F4291E"/>
			<stop  offset="0.7258" style="stop-color:#F01654"/>
			<stop  offset="0.9026" style="stop-color:#EF0D75"/>
			<stop  offset="1" style="stop-color:#EF0A7C"/>
		</linearGradient>
		<use xlink:href="#SVGID_32_"  style="overflow:visible;fill:url(#SVGID_33_);"/>
		<clipPath id="SVGID_34_">
			<use xlink:href="#SVGID_32_"  style="overflow:visible;"/>
		</clipPath>
	</g>
	<g>
		<defs>
			<path id="SVGID_35_" d="M41.5,26.1c0.6,2.7,0.9,5.4,1,8.3h10c-0.2-3-0.9-5.7-2.1-8.3H41.5z"/>
		</defs>
		<linearGradient id="SVGID_36_" gradientUnits="userSpaceOnUse" x1="47.5507" y1="13.7844" x2="46.0507" y2="57.7844">
			<stop  offset="0" style="stop-color:#C20C0D"/>
			<stop  offset="0.4045" style="stop-color:#F7310F"/>
			<stop  offset="0.4915" style="stop-color:#F4291E"/>
			<stop  offset="0.7258" style="stop-color:#F01654"/>
			<stop  offset="0.9026" style="stop-color:#EF0D75"/>
			<stop  offset="1" style="stop-color:#EF0A7C"/>
		</linearGradient>
		<use xlink:href="#SVGID_35_"  style="overflow:visible;fill:url(#SVGID_36_);"/>
		<clipPath id="SVGID_37_">
			<use xlink:href="#SVGID_35_"  style="overflow:visible;"/>
		</clipPath>
	</g>
</g>
</svg>
