<?xml version="1.0" encoding="utf-8"?>
<!-- Generator: Adobe Illustrator 21.0.0, SVG Export Plug-In . SVG Version: 6.00 Build 0)  -->
<svg version="1.1" id="Calque_1" xmlns="http://www.w3.org/2000/svg" xmlns:xlink="http://www.w3.org/1999/xlink" x="0px" y="0px"
	 viewBox="0 0 57.1 71.4" style="enable-background:new 0 0 57.1 71.4;" xml:space="preserve">
<style type="text/css">
	.st0{fill:url(#SVGID_1_);}
	.st1{fill:url(#SVGID_2_);}
	.st2{fill:none;stroke:url(#SVGID_3_);stroke-width:3;stroke-miterlimit:10;}
</style>
<g>
	
		<linearGradient id="SVGID_1_" gradientUnits="userSpaceOnUse" x1="20.6" y1="48.1879" x2="20.6" y2="26.3601" gradientTransform="matrix(1 0 0 -1 0 72.39)">
		<stop  offset="0" style="stop-color:#C20C0D"/>
		<stop  offset="0.4045" style="stop-color:#F7310F"/>
		<stop  offset="0.4915" style="stop-color:#F4291E"/>
		<stop  offset="0.7258" style="stop-color:#F01654"/>
		<stop  offset="0.9026" style="stop-color:#EF0D75"/>
		<stop  offset="1" style="stop-color:#EF0A7C"/>
	</linearGradient>
	<path class="st0" d="M18.7,26.1c-0.5-0.5-0.7-1.2-0.7-1.9c0-0.8,0.2-1.4,0.7-1.9s1.1-0.8,1.9-0.8s1.4,0.2,1.9,0.7s0.7,1.1,0.7,1.9
		s-0.2,1.5-0.7,2s-1.1,0.8-1.9,0.8C19.8,26.9,19.2,26.6,18.7,26.1z M18.4,29.2h4.3v16.7h-4.3C18.4,45.9,18.4,29.2,18.4,29.2z"/>
	
		<linearGradient id="SVGID_2_" gradientUnits="userSpaceOnUse" x1="34.4" y1="48.1879" x2="34.4" y2="26.3601" gradientTransform="matrix(1 0 0 -1 0 72.39)">
		<stop  offset="0" style="stop-color:#C20C0D"/>
		<stop  offset="0.4045" style="stop-color:#F7310F"/>
		<stop  offset="0.4915" style="stop-color:#F4291E"/>
		<stop  offset="0.7258" style="stop-color:#F01654"/>
		<stop  offset="0.9026" style="stop-color:#EF0D75"/>
		<stop  offset="1" style="stop-color:#EF0A7C"/>
	</linearGradient>
	<path class="st1" d="M40.3,30.8c1.1,1.2,1.7,3.1,1.7,5.5v9.6h-4.3v-8.8c0-1.3-0.3-2.3-0.8-3s-1.3-1-2.2-1c-1.1,0-2,0.4-2.6,1.1
		c-0.6,0.8-1,1.9-1,3.4v8.3h-4.3V29.2h4.1v2c0.6-0.7,1.3-1.2,2.1-1.6s1.8-0.6,2.8-0.6C37.7,28.9,39.2,29.6,40.3,30.8z"/>
</g>
<linearGradient id="SVGID_3_" gradientUnits="userSpaceOnUse" x1="-645.9018" y1="55.941" x2="-597.4066" y2="55.941" gradientTransform="matrix(0.2306 -0.973 -0.973 -0.2306 226.349 -556.2384)">
	<stop  offset="0" style="stop-color:#C20C0D"/>
	<stop  offset="0.4045" style="stop-color:#F7310F"/>
	<stop  offset="0.4915" style="stop-color:#F4291E"/>
	<stop  offset="0.7258" style="stop-color:#F01654"/>
	<stop  offset="0.9026" style="stop-color:#EF0D75"/>
	<stop  offset="1" style="stop-color:#EF0A7C"/>
</linearGradient>
<ellipse transform="matrix(0.1161 -0.9932 0.9932 0.1161 -10.2007 59.9084)" class="st2" cx="28.6" cy="35.7" rx="22.7" ry="22.7"/>
</svg>
