<?xml version="1.0" encoding="utf-8"?>
<!-- Generator: Adobe Illustrator 21.0.0, SVG Export Plug-In . SVG Version: 6.00 Build 0)  -->
<svg version="1.1" id="Calque_1" xmlns="http://www.w3.org/2000/svg" xmlns:xlink="http://www.w3.org/1999/xlink" x="0px" y="0px"
	 viewBox="0 0 57.1 71.4" style="enable-background:new 0 0 57.1 71.4;" xml:space="preserve">
<g>
	<g>
		<defs>
			<path id="SVGID_1_" d="M21.6,26.4c0-3.8,3.1-6.9,6.9-6.9c3.8,0,6.9,3.1,6.9,6.9c0,3.8-3.1,6.9-6.9,6.9
				C24.8,33.3,21.6,30.2,21.6,26.4 M10.4,26.4c0,3.9,1.3,8.4,3.4,11.4l14.8,22.3l14.8-22.3c2.1-3,3.4-7.4,3.4-11.4
				c0-10-8.1-18.2-18.2-18.2C18.5,8.3,10.4,16.4,10.4,26.4"/>
		</defs>
		<linearGradient id="SVGID_2_" gradientUnits="userSpaceOnUse" x1="28.1687" y1="8.6937" x2="29.3592" y2="61.0747">
			<stop  offset="0" style="stop-color:#C20C0D"/>
			<stop  offset="0.4045" style="stop-color:#F7310F"/>
			<stop  offset="0.4915" style="stop-color:#F4291E"/>
			<stop  offset="0.7258" style="stop-color:#F01654"/>
			<stop  offset="0.9026" style="stop-color:#EF0D75"/>
			<stop  offset="1" style="stop-color:#EF0A7C"/>
		</linearGradient>
		<use xlink:href="#SVGID_1_"  style="overflow:visible;fill:url(#SVGID_2_);"/>
		<clipPath id="SVGID_3_">
			<use xlink:href="#SVGID_1_"  style="overflow:visible;"/>
		</clipPath>
	</g>
	<g>
		<defs>
			<rect id="SVGID_4_" x="9.9" y="7.8" width="37.3" height="53.3"/>
		</defs>
		<clipPath id="SVGID_5_">
			<use xlink:href="#SVGID_4_"  style="overflow:visible;"/>
		</clipPath>
	</g>
</g>
</svg>
